<svg xmlns="http://www.w3.org/2000/svg" xmlns:xlink="http://www.w3.org/1999/xlink" viewBox="0 0 193 158">
  <defs>
    <style>
      .cls-1 {
        fill: none;
      }

      .cls-2 {
        fill: #ffc850;
      }

      .cls-3 {
        fill: #e1a546;
      }

      .cls-4 {
        fill: #ffdc64;
      }

      .cls-5 {
        fill: #fff;
      }

      .cls-6 {
        fill: #fffab4;
      }

      .cls-7 {
        filter: url(#Path_14);
      }
    </style>
    <filter id="Path_14" x="27.996" y="13" width="138.003" height="138.004" filterUnits="userSpaceOnUse">
      <feOffset dy="3" input="SourceAlpha"/>
      <feGaussianBlur stdDeviation="3" result="blur"/>
      <feFlood flood-opacity="0.161"/>
      <feComposite operator="in" in2="blur"/>
      <feComposite in="SourceGraphic"/>
    </filter>
  </defs>
  <g id="Group_17" data-name="Group 17" transform="translate(-646 -3020)">
    <rect id="Rectangle_22" data-name="Rectangle 22" class="cls-1" width="193" height="158" transform="translate(646 3020)"/>
    <g id="recommended" transform="translate(682.995 3039)">
      <g class="cls-7" transform="matrix(1, 0, 0, 1, -36.99, -19)">
        <path id="Path_14-2" data-name="Path 14" class="cls-2" d="M60.88,2.94,68.236.16a2.481,2.481,0,0,1,2.428.385L76.8,5.462A2.481,2.481,0,0,0,78.47,6l7.855-.371A2.481,2.481,0,0,1,88.516,6.75l4.317,6.573a2.48,2.48,0,0,0,1.419,1.031l7.585,2.075a2.481,2.481,0,0,1,1.738,1.738l2.075,7.585a2.48,2.48,0,0,0,1.031,1.419l6.573,4.317a2.482,2.482,0,0,1,1.116,2.191L114,41.534a2.481,2.481,0,0,0,.542,1.668l4.917,6.137a2.481,2.481,0,0,1,.385,2.428l-2.78,7.356a2.482,2.482,0,0,0,0,1.754l2.78,7.356a2.481,2.481,0,0,1-.385,2.428L114.542,76.8A2.481,2.481,0,0,0,114,78.469l.371,7.855a2.482,2.482,0,0,1-1.116,2.191l-6.573,4.317a2.48,2.48,0,0,0-1.031,1.419l-2.075,7.585a2.481,2.481,0,0,1-1.738,1.738l-7.585,2.075a2.48,2.48,0,0,0-1.419,1.031l-4.317,6.573a2.481,2.481,0,0,1-2.191,1.116L78.47,114a2.482,2.482,0,0,0-1.668.542l-6.137,4.917a2.481,2.481,0,0,1-2.428.385l-7.356-2.78a2.482,2.482,0,0,0-1.754,0l-7.356,2.78a2.481,2.481,0,0,1-2.428-.385L43.2,114.542A2.481,2.481,0,0,0,41.535,114l-7.855.371a2.481,2.481,0,0,1-2.191-1.116l-4.317-6.573a2.48,2.48,0,0,0-1.419-1.031l-7.585-2.075a2.481,2.481,0,0,1-1.738-1.738l-2.075-7.585a2.48,2.48,0,0,0-1.031-1.419L6.75,88.515a2.482,2.482,0,0,1-1.116-2.191L6,78.469A2.481,2.481,0,0,0,5.462,76.8L.546,70.663a2.481,2.481,0,0,1-.385-2.428l2.78-7.356a2.482,2.482,0,0,0,0-1.754L.162,51.768a2.481,2.481,0,0,1,.385-2.428L5.463,43.2a2.481,2.481,0,0,0,.542-1.668l-.371-7.855a2.481,2.481,0,0,1,1.116-2.191l6.573-4.317a2.48,2.48,0,0,0,1.031-1.419l2.075-7.585a2.481,2.481,0,0,1,1.738-1.738l7.585-2.075a2.48,2.48,0,0,0,1.419-1.031L31.49,6.749a2.482,2.482,0,0,1,2.191-1.116L41.536,6A2.481,2.481,0,0,0,43.2,5.461L49.342.544A2.481,2.481,0,0,1,51.77.16l7.356,2.78A2.479,2.479,0,0,0,60.88,2.94Z" transform="translate(36.99 19)"/>
      </g>
      <path id="Path_15" data-name="Path 15" class="cls-3" d="M78.73,154a62.416,62.416,0,0,1-56.8-88.3l-3.757,1.028a2.481,2.481,0,0,0-1.738,1.738l-2.075,7.585a2.481,2.481,0,0,1-1.031,1.419L6.751,81.794a2.481,2.481,0,0,0-1.116,2.191L6,91.84a2.482,2.482,0,0,1-.542,1.668L.546,99.646a2.481,2.481,0,0,0-.385,2.428l2.78,7.356a2.482,2.482,0,0,1,0,1.754l-2.78,7.356a2.481,2.481,0,0,0,.385,2.428l4.917,6.137a2.481,2.481,0,0,1,.542,1.668l-.371,7.855a2.482,2.482,0,0,0,1.116,2.191l6.573,4.317a2.481,2.481,0,0,1,1.031,1.419l2.075,7.585a2.481,2.481,0,0,0,1.738,1.739l7.585,2.075a2.48,2.48,0,0,1,1.419,1.031l4.317,6.573a2.482,2.482,0,0,0,2.191,1.116l7.855-.371a2.482,2.482,0,0,1,1.669.542l6.137,4.917a2.481,2.481,0,0,0,2.428.385l7.356-2.78a2.482,2.482,0,0,1,1.754,0l7.356,2.78a2.481,2.481,0,0,0,2.428-.385l6.137-4.917a2.483,2.483,0,0,1,1.669-.542l7.855.371a2.482,2.482,0,0,0,2.191-1.116l4.317-6.573a2.481,2.481,0,0,1,1.419-1.031l7.585-2.075a2.481,2.481,0,0,0,1.738-1.739l1.028-3.757A62.176,62.176,0,0,1,78.73,154Z" transform="translate(0 -50.306)"/>
      <circle id="Ellipse_9" data-name="Ellipse 9" class="cls-4" cx="47.857" cy="47.857" r="47.857" transform="translate(12.145 12.143)"/>
      <path id="Path_16" data-name="Path 16" class="cls-2" d="M136.276,169.444a2.257,2.257,0,0,0-1.74-.892,47.805,47.805,0,0,1-42.1-67.243,2.073,2.073,0,0,0-2.983-2.624,43.65,43.65,0,0,0,46.139,74.1,2.29,2.29,0,0,0,.681-3.338Z" transform="translate(-53.264 -75.296)"/>
      <g id="Group_3" data-name="Group 3" transform="translate(30.872 27.723)">
        <path id="Path_17" data-name="Path 17" class="cls-5" d="M146.279,240.187H133.795a2.081,2.081,0,0,1-2.081-2.081V204.814a2.081,2.081,0,0,1,2.081-2.081h12.485a2.081,2.081,0,0,1,2.081,2.081v33.292A2.081,2.081,0,0,1,146.279,240.187Z" transform="translate(-131.714 -182.94)"/>
        <path id="Path_18" data-name="Path 18" class="cls-5" d="M260.009,142.742a5.406,5.406,0,0,0-5.472-4.665H236.825c4.844-3.921,8.133-9.182,8.609-13.508.353-3.208-1.865-6.255-5.092-6.285a5.18,5.18,0,0,0-5.249,5.175c0,1.873-4.066,7.433-11.686,9.907l-.033.011a4.436,4.436,0,0,0-2.881,4.27v33.722a2.081,2.081,0,0,0,2.081,2.081H249.41a4.317,4.317,0,0,0,4.327-3.463,4.164,4.164,0,0,0-4.1-4.86h1.858a4.317,4.317,0,0,0,4.327-3.463,4.164,4.164,0,0,0-4.1-4.86h1.858a4.317,4.317,0,0,0,4.327-3.463,4.164,4.164,0,0,0-4.1-4.86h1.04A5.2,5.2,0,0,0,260.009,142.742Z" transform="translate(-199.683 -118.283)"/>
      </g>
      <g id="Group_4" data-name="Group 4" transform="translate(30.872 27.723)">
        <path id="Path_19" data-name="Path 19" class="cls-6" d="M329.1,300.387a2.081,2.081,0,1,0,0,4.162h3.95a4.317,4.317,0,0,0,4.327-3.463,4.274,4.274,0,0,0,.036-.7Z" transform="translate(-281.245 -257.706)"/>
        <path id="Path_20" data-name="Path 20" class="cls-6" d="M329.1,264.877a2.081,2.081,0,1,0,0,4.162h6.03a4.317,4.317,0,0,0,4.327-3.463,4.27,4.27,0,0,0,.036-.7Z" transform="translate(-281.245 -230.519)"/>
        <path id="Path_21" data-name="Path 21" class="cls-6" d="M329.1,229.367a2.081,2.081,0,0,0,0,4.162H336.4a5.183,5.183,0,0,0,5.069-4.161H329.1Z" transform="translate(-281.245 -203.331)"/>
        <path id="Path_22" data-name="Path 22" class="cls-6" d="M228.815,169.289a4.161,4.161,0,0,1-4.161-4.161V139.489a2.088,2.088,0,0,1,1.265-1.914c3.406-1.482,14.124-7.187,15.252-18.389l-.861-.9a5.18,5.18,0,0,0-5.217,5.175c0,1.873-4.066,7.433-11.686,9.907h0a4.235,4.235,0,0,0-2.914,4.024v33.98a2.081,2.081,0,0,0,2.081,2.081h26.838a4.247,4.247,0,0,0,4.377-4.147l-.015-.015H228.815Z" transform="translate(-199.684 -118.285)"/>
        <path id="Path_23" data-name="Path 23" class="cls-6" d="M140.037,236.026a4.161,4.161,0,0,1-4.161-4.161v-29.13h-2.081a2.081,2.081,0,0,0-2.081,2.081v33.292a2.081,2.081,0,0,0,2.081,2.081h12.485a2.081,2.081,0,0,0,2.081-2.081v-2.081Z" transform="translate(-131.714 -182.941)"/>
      </g>
      <circle id="Ellipse_10" data-name="Ellipse 10" class="cls-4" cx="3.121" cy="3.121" r="3.121" transform="translate(36.074 73.525)"/>
    </g>
  </g>
</svg>
