<svg xmlns="http://www.w3.org/2000/svg" viewBox="0 0 83.742 81.679">
  <defs>
    <style>
      .cls-1 {
        fill: #d65745;
      }

      .cls-1, .cls-2, .cls-3 {
        fill-rule: evenodd;
      }

      .cls-2 {
        fill: #343434;
      }

      .cls-3 {
        fill: #040404;
      }
    </style>
  </defs>
  <g id="logo" transform="translate(-128.5 -90.75)">
    <path id="path0" class="cls-1" d="M175.562,98.138c-1.156.166-2.96.5-3.532.653a26.937,26.937,0,0,0-3.683,1.189,1.619,1.619,0,0,1-.383.16,19.072,19.072,0,0,0-1.784.789c-.193.094-.738.4-1.211.676s-.978.566-1.122.64a3.47,3.47,0,0,0-.525.352c-.145.12-.562.423-.928.673s-.768.545-.894.656-.43.361-.675.555a36.693,36.693,0,0,0-4.111,4.273l-.433.567-3.044.027-3.044.027.972.58a8.348,8.348,0,0,0,1.073.581.154.154,0,0,1,.134.076,6.42,6.42,0,0,0,1.386.832.106.106,0,0,1,.111.1.119.119,0,0,0,.127.1.9.9,0,0,1,.363.184l.237.182-.622.37a4.267,4.267,0,0,1-.709.37.449.449,0,0,0-.22.128,1.825,1.825,0,0,1-.386.249c-.139.067-.615.327-1.059.577s-1.159.646-1.589.88c-1.061.578-1.041.588,1.085.588a10.8,10.8,0,0,1,1.866.082c0,.045-.176.624-.392,1.286a25.94,25.94,0,0,0-.825,2.819,28.617,28.617,0,0,0-.56,3.658l-.07,1.034h.716l.114-.883c.063-.486.139-1.087.168-1.337a28.125,28.125,0,0,1,1.685-6.382l.121-.278h24.8c19.768,0,24.8.026,24.8.127a2.251,2.251,0,0,0,.2.53,2.092,2.092,0,0,1,.2.56c.007.325.912.624.912.3a6.37,6.37,0,0,0-.407-1.238.868.868,0,0,1-.1-.223c0-.025,1.237-.061,2.749-.077,2.3-.025,2.808-.057,3.1-.2a19.019,19.019,0,0,1,2.281-.894c.077,0,.141-.045.141-.1s.085-.1.19-.1a4.5,4.5,0,0,0,1.274-.456,5.469,5.469,0,0,1,.554-.206,9.256,9.256,0,0,0,.874-.361,3.652,3.652,0,0,1,.771-.288c.234,0,.4-.255.249-.375-.07-.054-1.067-.571-2.214-1.148s-2.374-1.2-2.724-1.374l-.638-.324-4.912,0c-4.057,0-4.935-.028-5.045-.144a5.184,5.184,0,0,1-.335-.421,28.686,28.686,0,0,0-6.1-5.795,3.476,3.476,0,0,1-.341-.257,15.336,15.336,0,0,0-1.961-1.156.157.157,0,0,1-.137-.084,12.558,12.558,0,0,0-2.3-1.163l-.808-.347a29.824,29.824,0,0,0-6.357-1.7,48.3,48.3,0,0,0-7.063-.12m6.2.782c.972.12,3.787.664,4.2.81.139.049.5.165.808.258a27.359,27.359,0,0,1,3.582,1.435l1.211.616a39.864,39.864,0,0,1,3.609,2.343,32.669,32.669,0,0,1,4.092,3.933c.142.194.372.478.51.63s.228.3.2.328-9.641.041-21.361.026l-21.309-.025.305-.334a2.3,2.3,0,0,0,.305-.377,30.7,30.7,0,0,1,3.935-3.881c.587-.452.616-.474.874-.681.119-.1.3-.231.4-.3.991-.671,1.682-1.11,2.15-1.366a30.368,30.368,0,0,1,2.778-1.4c.277-.107.6-.232.706-.278.234-.1,1.174-.444,1.614-.6a22.322,22.322,0,0,1,2.472-.663l1.311-.258c.306-.059,1.032-.159,1.615-.22a8.1,8.1,0,0,0,1.11-.16,45.612,45.612,0,0,1,4.884.16m-6.548,18c-.079.332-.235,1.124-.4,2.043-.142.771-.279,1.486-.6,3.1-.332,1.693-.489,2.484-.613,3.1s-.281,1.409-.613,3.1c-.079.4-.214,1.084-.3,1.514s-.222,1.123-.3,1.539-.214,1.1-.3,1.513-.219,1.1-.3,1.514c-.148.772-.321,1.642-.61,3.077-.09.444-.2,1.035-.248,1.312s-.158.854-.247,1.282a8.033,8.033,0,0,0-.162,1.034v.257h6.656l.058-.277c.032-.153.1-.46.151-.681.091-.4.2-.935.452-2.321.127-.682.328-1.711.6-3.077.073-.361.209-1.042.3-1.514s.234-1.176.313-1.564.206-1.047.284-1.463c.17-.906.419-2.193.626-3.229.083-.417.211-1.075.285-1.463.127-.661.3-1.518.611-3.077.123-.611.262-1.321.6-3.078.269-1.383.456-2.325.518-2.6l.062-.278h-6.78l-.054.227m27.222,1.186c0,.305.019.43.042.277a2.185,2.185,0,0,0,0-.555c-.023-.153-.042-.028-.042.278m3.494,7.845c-.549.593-.868.99-.674.842.294-.225.07,2.465-.327,3.925-.188.69-.426,1.668-.454,1.866a6.358,6.358,0,0,1-.469,1.408.4.4,0,0,0-.087.232,2.678,2.678,0,0,1-.209.611c-.115.26-.278.633-.362.827-.317.732-.668,1.48-.922,1.968-.145.277-.311.606-.369.731s-.139.226-.181.227-.076.048-.076.105a1.116,1.116,0,0,1-.184.378c-.1.151-.407.614-.679,1.03s-.542.809-.6.874-.216.266-.355.447-.3.378-.353.437-.234.286-.4.5a30.444,30.444,0,0,1-3.71,3.6,3.054,3.054,0,0,0-.433.355,32.008,32.008,0,0,1-6.054,3.51c-.278.1-.641.241-.808.31a20.439,20.439,0,0,1-2.926.963c-.307.086-.924.2-2.472.463a26.518,26.518,0,0,1-13.571-1.379c-.111-.045-.519-.2-.908-.351a27.956,27.956,0,0,1-8.867-6c-.229-.246-.575-.613-.769-.813a25.851,25.851,0,0,1-4.583-7.113c-.149-.333-.314-.7-.365-.807a18.5,18.5,0,0,1-.95-2.876l-.319-1.261-.17.676c-.185.736-.222,1.449-.081,1.536a.906.906,0,0,1,.158.422,2.431,2.431,0,0,0,.157.531,5.962,5.962,0,0,1,.258.719,23.818,23.818,0,0,0,2.175,4.49,23.206,23.206,0,0,0,1.475,2.22c.045.055.255.327.465.605s.628.764.93,1.082a5.066,5.066,0,0,1,.548.633,28.135,28.135,0,0,0,2.429,2.3c.3.236.651.533.788.659a4.611,4.611,0,0,0,.609.45,5.56,5.56,0,0,1,.484.325c.067.058.18.15.252.206a25.285,25.285,0,0,0,3,1.766.105.105,0,0,1,.108.1.108.108,0,0,0,.113.1,20.407,20.407,0,0,1,2.258.952,11.987,11.987,0,0,0,1.261.453c.417.123.871.265,1.009.315s.456.14.706.2l1.059.256a30.185,30.185,0,0,0,10.948.3,22.11,22.11,0,0,0,3.131-.755,2.52,2.52,0,0,1,.5-.154,9.74,9.74,0,0,0,1.611-.519c.194-.085.444-.193.555-.239.441-.186,1.639-.733,2.065-.941.526-.259,2.679-1.532,2.993-1.772.119-.091.316-.232.439-.316s.316-.231.43-.328a.914.914,0,0,1,.268-.179,1.717,1.717,0,0,0,.378-.277c.176-.152.561-.478.858-.725a29.894,29.894,0,0,0,4.323-4.647,4.219,4.219,0,0,1,.252-.34c.118-.134.714-1.027,1.118-1.677a38.312,38.312,0,0,0,1.857-3.683,4.064,4.064,0,0,1,.189-.5.864.864,0,0,0,.083-.2c.013-.055.166-.509.34-1.009a25.153,25.153,0,0,0,1.2-5.119c.088-.736.285-3.306.254-3.306,0,0-.165.17-.357.378m-50.815,3.935c1.266.016,3.31.016,4.54,0s.195-.029-2.3-.029-3.5.013-2.238.029m36.122,0c1.267.016,3.31.016,4.541,0s.195-.029-2.3-.029-3.5.013-2.238.029" transform="translate(-8.215 -2.884)"/>
    <path id="path1" class="cls-2" d="M172.121,90.806a38.318,38.318,0,0,0-4.743.794c-1.79.5-2.64.763-2.976.9-.111.047-.588.232-1.059.413a36.57,36.57,0,0,0-5.651,2.919c-.028.033-.413.307-.857.61s-.863.6-.93.656-.182.151-.254.206a26.154,26.154,0,0,0-3.1,2.78,20.868,20.868,0,0,0-2.072,2.265c-.222.278-.449.56-.5.627a8.988,8.988,0,0,0-.553.736,2.528,2.528,0,0,1-.35.427,9.112,9.112,0,0,0,1.736.076c1.523,0,1.842-.023,1.842-.141a.206.206,0,0,1,.076-.177,7.23,7.23,0,0,0,.644-.69,24.142,24.142,0,0,1,2.4-2.422c.356-.305.722-.623.813-.706a10.092,10.092,0,0,1,1.007-.806c.194-.136.408-.294.476-.352a4.832,4.832,0,0,1,.785-.558,4.179,4.179,0,0,0,.537-.375.468.468,0,0,1,.269-.13.192.192,0,0,0,.17-.08,27.716,27.716,0,0,1,4.978-2.5,29.268,29.268,0,0,1,17.456-1.012,25.823,25.823,0,0,1,3.33,1.07,4.623,4.623,0,0,0,.605.253,30.708,30.708,0,0,1,3.733,1.869,27.466,27.466,0,0,1,4.481,3.278,21.255,21.255,0,0,1,3.162,3.385,6.873,6.873,0,0,0,1.8.1H201.2l-.216-.277c-.119-.153-.512-.664-.873-1.135a31.892,31.892,0,0,0-21.124-11.913,63.135,63.135,0,0,0-6.861-.088M162.7,113.982c.567,1.224-.331,4.347-1.618,5.63-1.444,1.44-1.538,1.454-10.131,1.484l-7.1.025-.128.373a5.765,5.765,0,0,0-.2.807,6.194,6.194,0,0,1-.164.737c-.135.426-.409,1.556-.465,1.917a2.846,2.846,0,0,1-.1.454c-.031.083-.119.435-.195.782-.2.935-.53,2.341-.9,3.859-.087.36-.205.905-.263,1.211a3.817,3.817,0,0,1-.2.73.889.889,0,0,0-.094.35,19.731,19.731,0,0,1-.518,2.233,3.76,3.76,0,0,0-.132.564c-.013.125-.1.518-.188.874-.272,1.074-.473,1.965-.473,2.092,0,.09.825.12,3.312.12h3.312l.114-.581c.142-.725.16-.8.415-1.791.114-.444.231-.921.258-1.059.059-.289.312-1.383.526-2.27.368-1.532.558-2.4.738-3.38a5.406,5.406,0,0,1,.257-.959,4.072,4.072,0,0,0,.222-.757l.085-.454,5.042-.057c5.423-.061,5.692-.084,7.328-.643a11.677,11.677,0,0,0,4.542-3c.185-.227.388-.469.452-.536a14.315,14.315,0,0,0,1.517-2.477c.252-.527.5-1.032.541-1.122a9.7,9.7,0,0,0,.346-1.1c.005-.028.087-.3.18-.605s.217-.8.275-1.11.13-.668.159-.807.081-.582.114-.984l.061-.732h-3.507c-3.3,0-3.5.01-3.425.177m35.9.012c.644,2.233-.746,5.587-2.693,6.5-1.113.522-.982.514-8.748.572l-7.314.055-.072.353c-.04.194-.141.706-.224,1.137a6.3,6.3,0,0,1-.212.881,2.478,2.478,0,0,0-.118.579,2.653,2.653,0,0,1-.142.642,2.952,2.952,0,0,0-.145.688,4.21,4.21,0,0,1-.158.785,3.412,3.412,0,0,0-.147.648,9.749,9.749,0,0,1-.2.967,4.63,4.63,0,0,0-.151.858c0,.155-.036.282-.079.282s-.09.148-.1.328a7.7,7.7,0,0,1-.169.934c-.079.333-.192.855-.249,1.16s-.168.85-.245,1.211-.2.929-.262,1.262-.146.673-.176.757a2.465,2.465,0,0,0-.087.353c-.062.377-.231,1.208-.388,1.917-.087.388-.186.854-.221,1.034l-.064.328H182.9l.05-.328c.028-.18.078-.441.112-.58s.13-.593.212-1.009.2-.938.253-1.161.17-.744.252-1.16.22-1.075.306-1.463.176-.825.2-.97.093-.463.154-.706.124-.556.14-.695.1-.547.191-.908.212-.928.274-1.261.128-.674.148-.757.039-.184.044-.223,2.289-.089,5.077-.11c3.235-.024,5.269-.079,5.619-.152a12.022,12.022,0,0,0,4.887-2.27,2.936,2.936,0,0,1,.349-.292,3.531,3.531,0,0,0,.409-.434c.189-.222.565-.653.835-.958.667-.753.685-.777.615-.847-.033-.034-.008-.061.057-.061a.133.133,0,0,0,.117-.143.2.2,0,0,1,.078-.177,12.073,12.073,0,0,0,1.258-2.679,5.849,5.849,0,0,1,.19-.555,9.5,9.5,0,0,0,.446-1.693c.022-.139.088-.525.146-.858s.133-.912.167-1.287l.061-.682-3.5.013c-3.184.011-3.492.027-3.448.177m-54.267.484c-.272,1.12-.6,2.824-.8,4.207-.053.363-.042.385.165.329a10.957,10.957,0,0,1,1.395-.061l1.173,0,.056-.429a29.513,29.513,0,0,1,.761-3.683l.1-.328-.674,0a6.547,6.547,0,0,1-1.128-.107c-1.022-.231-.976-.235-1.052.077m62.194,5.338a1.53,1.53,0,0,0-.1.354.763.763,0,0,1-.1.271c-.053.1-.265.538-.471.983a7.644,7.644,0,0,1-.436.857c-.035.028-.273.391-.53.808a11.214,11.214,0,0,1-.679,1,.55.55,0,0,0-.159.409,20.728,20.728,0,0,1-.446,3.685c-.053.222-.193.812-.312,1.312a31.9,31.9,0,0,1-1.26,3.85,1.505,1.505,0,0,0-.151.37,35.288,35.288,0,0,1-2.516,4.71c-.031.028-.3.413-.606.858s-.575.829-.606.857-.328.391-.659.808a35.812,35.812,0,0,1-3.887,3.887c-.417.331-.78.628-.808.659s-.413.3-.857.606-.83.575-.858.606a34.013,34.013,0,0,1-4.843,2.566,1.391,1.391,0,0,0-.353.153,32.806,32.806,0,0,1-3.733,1.208l-1.312.312c-.473.113-1.49.268-2.623.4a58.892,58.892,0,0,1-5.931.041,30.684,30.684,0,0,1-4.664-.875c-.389-.108-.843-.232-1.009-.276a8.24,8.24,0,0,1-1.508-.524.4.4,0,0,0-.232-.087,2.677,2.677,0,0,1-.611-.209c-.26-.115-.633-.278-.827-.363-.506-.219-2.261-1.084-2.32-1.144a5.142,5.142,0,0,0-.5-.292,29.8,29.8,0,0,1-10.947-11.147c-.437-.791-.5-.768-.673.263a3.316,3.316,0,0,1-.184.732,2.2,2.2,0,0,0-.148.605,4.711,4.711,0,0,1-.276.98c-.189.443-.192.487-.036.643a10.047,10.047,0,0,1,.655.887c.268.4.584.828.7.961a1.155,1.155,0,0,1,.215.3,1.733,1.733,0,0,0,.277.378c.152.175.478.561.725.858.471.565,2.546,2.663,3.351,3.389.259.233,1.053.855,1.766,1.384s1.341,1,1.4,1.041a36.692,36.692,0,0,0,6.962,3.479,33.307,33.307,0,0,0,18.262.941c1.049-.255,1.507-.377,1.716-.458.111-.042.542-.185.958-.315a8.98,8.98,0,0,0,.858-.3A6.138,6.138,0,0,1,186.8,152a20.92,20.92,0,0,0,2.573-1.158,8.908,8.908,0,0,0,1.9-1.04.153.153,0,0,1,.133-.076c.093,0,2.41-1.519,2.678-1.756.069-.061.183-.156.255-.211a43.559,43.559,0,0,0,5.147-4.864c.294-.346,1.443-1.872,1.693-2.248a3.385,3.385,0,0,1,.257-.341,35.861,35.861,0,0,0,3.215-6.118c.2-.527.4-1.028.451-1.113a2.365,2.365,0,0,0,.163-.5,2.69,2.69,0,0,1,.157-.5,3.917,3.917,0,0,0,.195-.608c.062-.25.2-.772.3-1.161.2-.782.427-1.854.671-3.229a50.81,50.81,0,0,0,.152-7.517c-.064,0-.16.117-.214.259" transform="translate(-4.472 0)"/>
    <path id="path2" class="cls-3" d="M162.1,208.518v2.018h.683l.041-1.007c.042-1.06.081-1.161.487-1.26.515-.127.652.122.691,1.25l.035,1.018h.788v-1.07c0-1.344-.14-1.7-.726-1.862a1.241,1.241,0,0,0-1.142.172c-.133.133-.15.069-.15-.563V206.5H162.1v2.018m24.115-1.3c0,.68-.01.713-.176.567a1.425,1.425,0,0,0-1.914.3c-1.008,1.321.693,3.383,1.893,2.3.179-.162.2-.163.2-.012,0,.124.092.167.354.167h.353V206.5h-.707v.722M128.5,208.569v1.968h.807v-1.211h.6c1.147,0,1.621-.387,1.621-1.325,0-1.056-.529-1.392-2.195-1.4l-.832,0v1.968M148.377,207v.4h1.312v3.128h.807v-3.128h1.211V206.6h-3.33v.4m41.067,1.551v1.981h.807v-1.211h.615c1.045,0,1.705-.517,1.705-1.334,0-.956-.525-1.309-2.04-1.372l-1.088-.045v1.98m-53.88-1.349c0,.336-.034.4-.2.4s-.2.067-.2.3.045.3.2.3c.187,0,.2.067.2.9,0,1.393.237,1.668,1.267,1.475.541-.1.493-.712-.056-.712h-.354l-.029-.832-.029-.832h.407c.386,0,.407-.016.407-.3s-.022-.3-.4-.3h-.4V206.8h-.807v.4m63.163,0c0,.291-.042.4-.151.4s-.151.1-.151.3.05.3.151.3c.124,0,.151.173.151.944,0,1.314.367,1.688,1.388,1.414a.361.361,0,0,0-.151-.7l-.378.011-.03-.832-.029-.832h.407c.386,0,.408-.016.408-.3s-.022-.3-.4-.3h-.4V206.8h-.807v.4m-68.084.432c.394.506-.015.981-.844.981h-.491v-1.34l.581.068c.428.05.625.126.754.291m60.636-.227c.893.248.5,1.208-.489,1.208h-.538v-1.312h.328a3.226,3.226,0,0,1,.7.1m-58.532.269c-1.062.559-1.039,2.479.033,2.854.914.32,2.285-.193,1.768-.662-.2-.18-.223-.181-.513-.015a.817.817,0,0,1-1.03-.035c-.515-.405-.367-.5.794-.5h1.059v-.313a1.469,1.469,0,0,0-2.112-1.332m6.268-.1a.411.411,0,0,0-.288.188c-.073.189-.236.185-.236-.008,0-.105-.107-.151-.353-.151h-.354v2.926h.706V209.8c0-.923.219-1.343.751-1.443.337-.064.358-.09.358-.46,0-.413-.027-.427-.586-.32m1.848.053a1.606,1.606,0,0,0-.529,2.572c.373.372.4.38,1.142.38h.763l.407-.436a1.576,1.576,0,0,0-1.783-2.515m12.2-.021a1.584,1.584,0,0,0-.1,2.916,1.629,1.629,0,0,0,2.187-2.052,1.717,1.717,0,0,0-2.085-.865m3.923.041c-.18.081-.328.1-.328.051s-.159-.1-.353-.1h-.354v2.926h.707v-.959c0-1.019.148-1.362.586-1.362.465,0,.573.231.609,1.3l.035,1.018h.788v-1c0-1.714-.594-2.376-1.69-1.885m3-.074c-1.1.207-.973,1.369.191,1.806.414.155.565.263.565.4,0,.254-.567.317-.879.1s-.51-.2-.664.048c-.21.337.383.7,1.139.7,1.452,0,1.66-1.52.252-1.849-.492-.116-.684-.331-.479-.538.156-.158.216-.164.5-.048.485.194.585.187.749-.055.247-.364-.6-.714-1.38-.567m9.774.027a1.618,1.618,0,0,0-.187,2.853c.853.429,2.384-.046,1.856-.575-.2-.2-.352-.2-.6-.008a.8.8,0,0,1-1.187-.375c-.056-.161.035-.176,1.054-.176H171.8l-.071-.429a1.444,1.444,0,0,0-1.978-1.289m8.151.01c-.6.1-.587.088-.507.487.061.3.084.32.379.246.53-.131.987-.083,1.136.121.211.289.188.3-.609.3-.852,0-1.11.147-1.212.694-.15.8.377,1.263,1.284,1.13a7.191,7.191,0,0,1,.952-.054l.53.007v-1.02c0-1.7-.466-2.156-1.952-1.911m3.771,0a.82.82,0,0,0-.326.221c-.052.082-.077.064-.079-.056s-.086-.177-.355-.177h-.353v2.926h.683l.041-1.007c.042-1.06.081-1.161.487-1.26.515-.127.652.122.691,1.25l.035,1.018h.788v-1.07c0-1.317-.143-1.7-.692-1.854a1.148,1.148,0,0,0-.92.009m12.357-.062c-.056.019-.271.062-.479.1-.3.051-.378.107-.377.286,0,.4.111.467.6.356.537-.12,1.008.016,1.008.292,0,.154-.1.179-.7.179-.9,0-1.219.245-1.219.926,0,.713.485,1.036,1.343.9a5.989,5.989,0,0,1,.9-.058l.479.01v-1.14c0-1.03-.022-1.167-.227-1.423a1.525,1.525,0,0,0-1.337-.424m3.632.022a1.06,1.06,0,0,0-.378.205c-.16.142-.177.141-.177-.01,0-.128-.1-.167-.4-.167h-.4v2.926h.786l.036-.848c.039-.941.182-1.21.7-1.324.262-.058.292-.106.292-.46,0-.4-.033-.426-.454-.323m4.313.073c-.18.081-.328.1-.328.051s-.182-.1-.4-.1h-.4v2.926h.807v-.959c0-1.069.182-1.445.64-1.322a2.149,2.149,0,0,0,.277.06c.165,0,.294.605.294,1.368v.853h.723l-.033-1.259c-.043-1.616-.511-2.1-1.572-1.622m3,.031a1.624,1.624,0,0,0,.047,2.85c.663.252,1.817-.029,1.817-.443,0-.325-.3-.436-.644-.236a.737.737,0,0,1-1-.059c-.4-.421-.3-.473.84-.473H207.1V209a1.59,1.59,0,0,0-1.461-1.488,1.765,1.765,0,0,0-.654.177m4.084-.1a1.22,1.22,0,0,0-.429.258l-.227.209v-.219c0-.183-.058-.22-.353-.22h-.354v2.926h.706v-.518c0-.978.392-1.7.921-1.7.153,0,.188-.077.188-.4,0-.41-.032-.433-.454-.331m1.528.031c-1.075.322-.945,1.334.228,1.773.414.155.565.263.565.4,0,.255-.443.306-.846.1s-.59-.2-.663.03c-.279.878,1.9.992,2.265.118.254-.615.055-.855-1.134-1.364-.417-.178-.458-.264-.219-.462.13-.108.218-.108.479,0,.585.235.63.234.745-.018.219-.48-.613-.817-1.42-.575m-66.944.729c.165.4.359.868.431,1.034s.211.518.309.782c.173.465.957.767.957.368a1.66,1.66,0,0,1,.146-.429c.211-.46.828-1.994.908-2.261.064-.209.037-.227-.332-.227h-.4l-.312.816a6.381,6.381,0,0,0-.312.958c0,.306-.163.119-.336-.387-.473-1.377-.479-1.386-.94-1.387h-.42l.3.732m21.777.324c0,1.733.637,2.4,1.741,1.825.153-.079.277-.1.277-.05s.159.1.354.1h.353V207.61h-.706v.959c0,1.056-.146,1.362-.65,1.362-.423,0-.561-.339-.561-1.385v-.937h-.807v1.056m6.628-.88a1.512,1.512,0,0,0,.131.277,7.03,7.03,0,0,1,.3.757,7.318,7.318,0,0,0,.3.757,4.863,4.863,0,0,1,.244.581c.245.661.783.714,1.028.1.083-.208.193-.469.243-.58.184-.4.806-1.957.806-2.018,0-.035-.186-.048-.414-.031l-.414.031-.335.892c-.185.491-.353.91-.374.931a4.853,4.853,0,0,1-.386-.917l-.348-.956h-.426c-.362,0-.417.027-.363.177m-38.255.576c.381.382.314.458-.409.458-.389,0-.656-.043-.656-.105,0-.164.476-.6.656-.6a.822.822,0,0,1,.409.248m36.855-.042c.4.374.292.5-.426.5s-.826-.194-.28-.533c.353-.219.441-.215.706.032m35.389.042c.382.382.314.458-.408.458-.389,0-.656-.043-.656-.105,0-.164.477-.6.656-.6a.821.821,0,0,1,.408.248m-64.2-.03a.814.814,0,0,1,.162,1.389c-.459.458-.977.353-1.293-.263a.844.844,0,0,1,1.13-1.125m12.323.121a.926.926,0,0,1-.4,1.536.88.88,0,0,1-.914-.706c-.162-.859.695-1.4,1.311-.829m31.515-.174a.87.87,0,0,1,.215,1.441c-.686.685-1.625-.188-1.164-1.081.21-.406.445-.5.949-.36m-6.954,1.007c.6.12.239.789-.4.726-.468-.046-.621-.339-.311-.593.267-.219.271-.22.708-.133m15.844,0c.567.113.185.743-.451.743-.568,0-.727-.5-.222-.7a.8.8,0,0,1,.673-.041m-47.11,5.889V217.2h.808v-4.036h-.808v2.018m8.98-1.665c0,.345.01.354.4.354s.4-.008.4-.354-.01-.353-.4-.353-.4.008-.4.353m6.659,0c0,.345.01.354.4.354s.4-.008.4-.354-.01-.353-.4-.353-.4.008-.4.353m-2.22.354c0,.291-.042.4-.151.4s-.151.1-.151.3.05.3.151.3c.123,0,.151.173.151.944,0,1.314.367,1.688,1.388,1.414a.361.361,0,0,0-.151-.7l-.378.011-.03-.832-.029-.832h.407c.386,0,.408-.016.408-.3s-.022-.3-.4-.3h-.4v-.807h-.807v.4m-10.947.428a1.606,1.606,0,0,0-.529,2.572c.373.372.4.38,1.142.38h.763l.407-.436a1.576,1.576,0,0,0-1.783-2.515m3.421.018a1.446,1.446,0,0,0,.131,2.623,1.3,1.3,0,0,0,1.286-.2c.139-.139.155-.133.155.059,0,.584-.812.878-1.561.565-.329-.138-.351-.133-.512.113-.3.45-.028.585,1.157.585,1.527,0,1.722-.272,1.722-2.411v-1.372h-.4c-.317,0-.4.038-.405.177s-.024.142-.083.048c-.188-.3-1-.4-1.488-.182m5.153-.037c-.989.288-.792,1.42.307,1.765.613.193.684.251.592.49-.079.205-.638.213-.9.013-.281-.212-.524-.188-.66.065-.339.633,1.573.958,2.129.361.469-.5.145-1.281-.622-1.493-.493-.136-.715-.321-.635-.529s.324-.221.75-.008c.323.162.337.159.513-.074.351-.464-.6-.845-1.471-.59m6.937,0a1.608,1.608,0,0,0-.175,2.818c.948.459,2.352-.013,1.813-.61-.179-.2-.182-.2-.534.01a.778.778,0,0,1-1.228-.721c0-.748.682-1.136,1.234-.7a.446.446,0,0,0,.683-.378c0-.343-1.153-.611-1.793-.417m4.843,0a1.608,1.608,0,0,0-.175,2.818c.948.459,2.352-.013,1.813-.61-.179-.2-.182-.2-.534.01a.778.778,0,0,1-1.228-.721c0-.748.682-1.136,1.234-.7a.446.446,0,0,0,.684-.378c0-.343-1.153-.611-1.793-.417m3.243,0a1.58,1.58,0,0,0-.175,2.885,1.619,1.619,0,0,0,2.2-2.14,1.78,1.78,0,0,0-2.02-.745m3.9.008a.82.82,0,0,0-.326.221c-.052.082-.077.064-.079-.056s-.086-.177-.355-.177h-.353V217.2h.683l.041-1.02c.045-1.13.18-1.374.688-1.247.367.093.4.2.4,1.283l0,.984h.807v-.959c0-1,.148-1.362.555-1.362s.555.364.555,1.362v.959h.807v-1.07c0-1.282-.144-1.688-.659-1.857a1.458,1.458,0,0,0-1.2.16c-.112.111-.2.1-.521-.063a1.08,1.08,0,0,0-1.047-.085m5.446-.041a1.31,1.31,0,0,0-.328.209c-.159.139-.177.137-.177-.013,0-.123-.092-.167-.353-.167h-.354V218.1h.706v-1.115l.32.165c1.478.764,2.808-1.437,1.579-2.615a1.581,1.581,0,0,0-1.394-.3m3.381-.024a4.648,4.648,0,0,1-.479.1c-.3.051-.378.107-.377.286,0,.4.116.472.584.367.614-.138,1.13.058,1.13.429a4.426,4.426,0,0,1-.748.032c-.942,0-1.27.234-1.27.907,0,.715.5,1.056,1.343.913a5.484,5.484,0,0,1,.9-.058l.479.014v-1.143c0-1.183-.082-1.469-.484-1.679a2.706,2.706,0,0,0-1.079-.166m3.405.1c-.18.081-.328.1-.328.051s-.159-.1-.353-.1h-.354V217.2h.707v-.959c0-1.019.148-1.362.586-1.362.465,0,.573.231.609,1.3l.035,1.018h.788v-1c0-1.714-.594-2.376-1.69-1.885m-33.221,1.418V217.2h.807v-2.927h-.807v1.463m6.659,0V217.2h.807v-2.927h-.807v1.463m28.655-1.366a.767.767,0,0,0,.1.283,16.47,16.47,0,0,1,.667,1.587c.1.278.245.618.316.757.164.32-.076.542-.486.452-.226-.05-.277-.018-.333.2-.1.385-.005.455.6.455.757,0,.848-.116,1.515-1.917.154-.416.364-.947.468-1.18.275-.621.25-.737-.162-.737s-.429.031-.814,1.2l-.279.845-.372-1-.373-1-.42-.031c-.25-.018-.42.013-.42.077m-37.294.574a.761.761,0,0,1-.314,1.448.778.778,0,0,1-.28-1.5c.252-.139.188-.144.594.049m-3.539.052a.814.814,0,0,1,.162,1.389c-.459.458-.977.353-1.293-.263a.844.844,0,0,1,1.13-1.125m23.716.149a.915.915,0,0,1-.588,1.55c-.338,0-.76-.512-.76-.921a.78.78,0,0,1,1.348-.628m9.025-.061a.988.988,0,0,1-.57,1.61c-.261,0-.722-.6-.722-.934a.793.793,0,0,1,1.293-.677m3.135.866c.6.119.263.744-.4.744-.685,0-.67-.668.018-.8a2.092,2.092,0,0,1,.378.051" transform="translate(0 -45.675)"/>
  </g>
</svg>
