<svg xmlns="http://www.w3.org/2000/svg" viewBox="0 0 400 239.785">
  <defs>
    <style>
      .cls-1 {
        fill: #7c3c3c;
        fill-rule: evenodd;
      }
    </style>
  </defs>
  <g id="logo-smart" transform="translate(0 0.05)">
    <path id="path0" class="cls-1" d="M194.167.174c-58.022,4.178-97.135,59.8-81.242,115.533a91,91,0,0,0,66.29,63.1c63.38,14.611,120.85-39.449,110.1-103.562C281.719,30,239.756-3.109,194.167.174m9.75,10.5A80.079,80.079,0,0,1,278.061,108.5c-7.2,32.2-34.781,57.343-67.454,61.494A80.129,80.129,0,0,1,121.1,77c6.007-35.757,36.231-63.345,72.483-66.162a65.751,65.751,0,0,1,10.334-.167m-30.75,34.344c-16.42,1.412-26.909,10.861-26.9,24.235.007,11.907,7.321,18.935,24.445,23.489,1.536.409,2.866.788,2.955.843.217.134.231,31.526.014,31.66-.931.576-8.213-2.181-11.449-4.334-4.447-2.959-8.23-9.768-8.23-14.814a.593.593,0,0,0-.252-.534c-.351-.135-10.629.775-10.823.957-.393.37.453,5.875,1.325,8.624,4.322,13.626,16.005,20.784,34.5,21.138,20.682.4,34.5-10.233,34.477-26.529-.016-13.391-7.938-20.612-28.06-25.576-1.146-.283-2.252-.586-2.459-.674l-.375-.16V55.467l1.042.118c8.89,1.006,14.847,6.871,15.885,15.64l.116.975.854-.1c.469-.052,2.991-.256,5.6-.452s4.782-.385,4.82-.421a30.921,30.921,0,0,0-.574-4.812c-3.023-14.632-17.569-23.067-36.912-21.4M215.833,51.2v4.918l3.542.1q18.345.51,18.341,14.285c.006,9.337-7.09,14.833-19.152,14.833a17.61,17.61,0,0,0-2.21.105l-.521.1V98.083l.791.5c3.592,2.257,7.682,7.8,19.7,26.711l6.063,9.541h14.794l-.616-.958c-2.161-3.365-6.1-9.527-6.89-10.792-1.031-1.639-4.12-6.461-7.153-11.166-5.791-8.984-11.49-14.765-16.669-16.911-.777-.321-.643-.421.859-.638a35.919,35.919,0,0,0,13.625-5.013c14.984-9.926,11.781-35.484-5.141-41.014-3.554-1.161-8.371-1.789-14.984-1.953l-4.375-.108V51.2m-42.04,17.057c.024,7.366-.021,12.873-.107,12.959-.489.489-9.291-2.62-11.551-4.081-6.959-4.5-5.85-14.866,2.054-19.2,2.257-1.239,8.041-2.79,9.394-2.52.109.022.182,4.471.21,12.844M186.75,96.861c9.643,2.673,14.023,6.046,15,11.556,1.387,7.806-3.919,14.347-13.4,16.516a32.9,32.9,0,0,1-5.886.8c-.149-.092-.186-29.786-.038-29.935.1-.1.047-.118,4.322,1.067M8.833,200.614A10.705,10.705,0,0,0,.82,215.1c1.117,2.877,2.987,4.715,7.1,6.976,8.415,4.629,9.724,5.573,10.873,7.834,2.765,5.446-5.748,9.384-11.692,5.409a14.83,14.83,0,0,1-5.7-8.7c-.292-1.1-.31-1.125-.847-1.125H0v14.167l.542-.006c.459,0,.609-.116.986-.738.9-1.48,2.011-1.624,4.669-.606,4.575,1.754,9.66,1.771,13.078.046,6.732-3.4,8.364-12.276,3.185-17.326-1.449-1.414-1.375-1.364-6.21-4.113-8.264-4.7-9.917-6.267-9.917-9.4,0-2.838,1.941-4.352,5.577-4.352,5.138,0,8.742,3.02,10.241,8.583.238.887.321,1.006.726,1.053l.456.052V200.5h-.464c-.35,0-.471.085-.491.343-.167,2.225-1.529,2.747-3.815,1.463a15.848,15.848,0,0,0-9.73-1.692m86.55,3.1c-.752,1.763-2.616,6.093-4.141,9.622s-3.694,8.554-4.82,11.167c-4.242,9.842-4.568,10.478-6.094,11.9-2.173,2.033-7.1,1.732-7.98-.488-.354-.891-.407-30.2-.057-31.351.417-1.367,1.4-1.906,3.927-2.151,1.108-.108,1.133-.121,1.083-.554l-.051-.444-7.335-.044-7.335-.043-.983,2.46c-.54,1.353-2.664,6.7-4.72,11.877s-3.79,9.471-3.855,9.539c-.1.1-3.788-8.722-8.671-20.745l-1.268-3.123-7.625,0-7.625,0v.481c0,.471.023.483,1.125.6,4.344.447,4.086-.565,4.164,16.329.089,19.021.172,18.611-3.843,18.91l-1.362.1-.053.542-.052.541h6.594c3.627,0,6.6-.056,6.615-.125.166-.973.19-.958-1.734-1.108-2.172-.17-2.96-.772-3.274-2.506-.289-1.593-.235-28.307.056-27.761.122.23,1.576,3.642,3.23,7.584,10.945,26.077,9.956,23.828,10.5,23.884.565.058.283.635,3.118-6.384,6.4-15.851,9.808-24.273,10.083-24.917.382-.9.525,25.391.149,27.424-.36,1.949-1.088,2.51-3.516,2.711l-1.385.115-.052.543-.053.542,16.053-.042,16.052-.043.052-.453c.059-.509-.045-.552-1.692-.693-3.486-.3-4.016-2.072-2.055-6.88l1.076-2.641,6.149-.043L99.928,228l1.228,2.96c2.078,5.015,1.781,6.363-1.47,6.685-1.1.108-1.1.112-1.155.651l-.052.541h37.875l-.052-.541-.052-.542-1.25-.1c-3.848-.307-4.057-.887-3.963-10.983l.046-4.917.5.059c1.443.17,2.077.936,8,9.658l5,7.363,5.875,0h5.875v-.583c0-.525-.045-.583-.458-.584-1.235,0-2.245-1.177-8.4-9.784-5.505-7.694-4.975-6.8-4.189-7.053,8.747-2.8,10.224-14.042,2.34-17.811-3.18-1.52-4.941-1.685-18.057-1.685h-10.4v.487c0,.479.018.489,1.125.6,2.446.238,3.536.879,3.9,2.293.387,1.5.324,29.552-.068,30.822-.811,2.619-5.754,3.084-8.108.763-1.76-1.737-.652.7-15.136-33.252-1.574-3.689-1.644-3.676-3.5.669m127.068-2.976c-6.608,1.514-9.925,8.9-7.389,16.466l.382,1.141L213.1,219.5c-5.846,2.89-8.474,6.166-8.718,10.865-.449,8.662,11.26,12.191,21.944,6.612l1.573-.821.594.5c5.714,4.821,12.539,3.735,16.238-2.585l.774-1.322-.376-.289c-.515-.4-.658-.373-1.2.2-2.123,2.216-5.841,1.682-8.953-1.286l-.977-.932.409-.429a47.508,47.508,0,0,0,4.932-7.378c1.666-2.839,2.61-3.747,4.355-4.194.806-.206.878-.264.878-.708v-.483l-5.628-.044-5.627-.044.052.527c.048.477.128.545.854.729,3.056.772,2.837,4.521-.526,9.04-1.27,1.706-.981,1.78-3.231-.833a52.065,52.065,0,0,1-6.292-8.5l-.532-.957.464-.177c6.381-2.426,9.1-5.4,8.868-9.708-.239-4.563-5.336-7.737-10.518-6.55m115.789.015c-12.266,2.152-19.336,14.877-15,27,4.368,12.222,21.754,16.069,31.44,6.957L356,233.465v-3.508l-1.453,1.543c-5.538,5.884-12.955,7.146-17.592,2.995-6.7-6-6.841-22.351-.241-28.688,5.642-5.417,16.175-1.854,18.06,6.11.151.641.3,1.26.329,1.375s.31.208.642.208h.588v-13h-.388c-.3,0-.475.185-.784.846-1.025,2.189-2.091,2.3-5.661.591-2.709-1.3-7.659-1.819-11.26-1.187m-183.407,5.833v5.25h.49c.46,0,.5-.048.583-.791.619-5.233,2.729-6.865,8.886-6.872l2.375,0,0,14.208c0,14.459-.08,16.668-.613,17.759q-.664,1.36-3.329,1.5l-1.389.072v1.125h19.188l-.052-.541-.052-.542-1.417-.112c-3.948-.311-3.708.844-3.788-18.2l-.064-15.309,2.884.073c5.886.147,8.3,2.122,8.3,6.785v.842H188v-10.5H154.833v5.25m106.334-4.773c0,.491.012.5,1.125.608,2.2.217,3.214.69,3.676,1.711.416.916.521,29.67.116,31.255s-1.171,2.093-3.5,2.267l-1.335.1-.052.542-.052.541h19.187v-.5c0-.563-.085-.6-1.833-.733-1.8-.141-2.8-.746-3.2-1.952-.23-.691-.406-13.616-.188-13.834.334-.334,1.473.218,2.386,1.156.691.71,8.568,12,10.744,15.4l.293.458h11.8v-.5c0-.511-.05-.553-.879-.735-.622-.136-1.612-1.058-2.871-2.673s-9.956-13.776-9.884-13.823c.028-.018.547-.239,1.154-.491,4.6-1.912,6.82-4.925,6.81-9.261-.013-5.337-2.859-8.351-9.089-9.621-1.122-.229-3.081-.281-12.866-.341l-11.541-.07v.5m39.983-.435c-.286.721-.088.926,1,1.034,2.786.278,3.676.915,4.005,2.869.3,1.784.16,29.584-.153,30.44-.465,1.271-1.8,1.949-3.825,1.949-.839,0-1.1.18-1.1.75,0,.329.129.334,9.544.376l9.542.043v-1.122l-1.415-.089c-1.833-.114-2.859-.588-3.335-1.542-.408-.814-.631-28.734-.248-30.956.315-1.826,1.178-2.42,3.939-2.714.978-.1,1.5-.581,1.09-.992-.084-.085-19.014-.13-19.048-.046m58.35.445c0,.479.018.489,1.125.6,3.191.315,3.778.889,4.059,3.962.25,2.73.1,27.944-.171,28.991-.395,1.52-1.636,2.244-3.971,2.318l-1.042.032v1.115l9.542-.043,9.541-.043v-1l-1.416-.111c-3.684-.287-3.74-.435-3.746-9.972l0-6.75,6.291-.044,6.292-.044v6.555c0,9.484-.159,9.958-3.436,10.214-1.826.143-1.852.154-1.767.733l.075.505,9.522-.043,9.523-.043v-1l-1.468-.112c-3.989-.3-3.81.571-3.747-18.305l.048-14.416.369-.8c.463-1.005,1.258-1.393,3.384-1.655,1.49-.183,1.5-.187,1.5-.658v-.473H380.833v.478c0,.475.009.479,1.442.664,3.63.469,3.626.46,3.694,9.069l.052,6.627-6.3-.044-6.3-.044-.049-5.166c-.089-9.574.123-10.108,4.174-10.5,1.107-.107,1.125-.117,1.125-.6v-.487H359.5v.487M224.359,203c2.208.614,3.857,6.3,2.644,9.12-.614,1.427-3.814,3.783-4.3,3.162a35.492,35.492,0,0,1-2.053-5.2c-1.163-4.244.749-7.9,3.7-7.079m-88.326.682a6.746,6.746,0,0,1,5.394,5.459c1.322,6.238-2.357,10.686-8.677,10.49l-1.667-.052-.043-8.041L131,203.5h2.077a19.963,19.963,0,0,1,2.959.186m144.985.288c2.948,1.152,4.386,3.35,4.6,7.029.315,5.4-3.039,8.664-8.9,8.664H275v-16.2l2.542.073a9.4,9.4,0,0,1,3.476.437M96.408,219.64c1.334,3.148,2.425,5.792,2.425,5.875a39.889,39.889,0,0,1-5.079.152H88.675l.146-.375c.08-.207,1.1-2.663,2.263-5.459s2.223-5.34,2.353-5.654c.332-.8.269-.916,2.971,5.461m120.842,2.485a59.283,59.283,0,0,0,7.59,10.738c1.41,1.554,1.408,1.527.118,1.956-3.878,1.29-7.129.56-9.877-2.218-4.154-4.2-4.113-9.843.086-11.9,1.072-.525,1.045-.543,2.083,1.424"/>
  </g>
</svg>
