<svg xmlns="http://www.w3.org/2000/svg" xmlns:xlink="http://www.w3.org/1999/xlink" viewBox="0 0 193 158">
  <defs>
    <style>
      .cls-1 {
        fill: none;
      }

      .cls-2 {
        fill: #e4eaf8;
      }

      .cls-3 {
        fill: #d8dce5;
      }

      .cls-4 {
        fill: #feca57;
      }

      .cls-5 {
        fill: #15ba8b;
      }

      .cls-6 {
        fill: #54a0ff;
      }

      .cls-7 {
        fill: #11aa7b;
      }

      .cls-8 {
        fill: #338def;
      }

      .cls-9 {
        fill: #ff6b6b;
      }

      .cls-10 {
        filter: url(#Path_9);
      }

      .cls-11 {
        filter: url(#Path_6);
      }

      .cls-12 {
        filter: url(#Path_5);
      }

      .cls-13 {
        filter: url(#Path_3);
      }

      .cls-14 {
        filter: url(#Path_1);
      }
    </style>
    <filter id="Path_1" x="35.958" y="48.981" width="120.798" height="67.979" filterUnits="userSpaceOnUse">
      <feOffset dy="3" input="SourceAlpha"/>
      <feGaussianBlur stdDeviation="3" result="blur"/>
      <feFlood flood-opacity="0.161"/>
      <feComposite operator="in" in2="blur"/>
      <feComposite in="SourceGraphic"/>
    </filter>
    <filter id="Path_3" x="87.358" y="31.5" width="65.843" height="50.829" filterUnits="userSpaceOnUse">
      <feOffset dy="3" input="SourceAlpha"/>
      <feGaussianBlur stdDeviation="3" result="blur-2"/>
      <feFlood flood-opacity="0.161"/>
      <feComposite operator="in" in2="blur-2"/>
      <feComposite in="SourceGraphic"/>
    </filter>
    <filter id="Path_5" x="39.514" y="31.5" width="65.844" height="50.829" filterUnits="userSpaceOnUse">
      <feOffset dy="3" input="SourceAlpha"/>
      <feGaussianBlur stdDeviation="3" result="blur-3"/>
      <feFlood flood-opacity="0.161"/>
      <feComposite operator="in" in2="blur-3"/>
      <feComposite in="SourceGraphic"/>
    </filter>
    <filter id="Path_6" x="19.714" y="51.317" width="50.812" height="65.643" filterUnits="userSpaceOnUse">
      <feOffset dy="3" input="SourceAlpha"/>
      <feGaussianBlur stdDeviation="3" result="blur-4"/>
      <feFlood flood-opacity="0.161"/>
      <feComposite operator="in" in2="blur-4"/>
      <feComposite in="SourceGraphic"/>
    </filter>
    <filter id="Path_9" x="122.19" y="51.317" width="50.812" height="65.643" filterUnits="userSpaceOnUse">
      <feOffset dy="3" input="SourceAlpha"/>
      <feGaussianBlur stdDeviation="3" result="blur-5"/>
      <feFlood flood-opacity="0.161"/>
      <feComposite operator="in" in2="blur-5"/>
      <feComposite in="SourceGraphic"/>
    </filter>
  </defs>
  <g id="Group_21" data-name="Group 21" transform="translate(-626 -2406)">
    <rect id="Rectangle_20" data-name="Rectangle 20" class="cls-1" width="193" height="158" transform="translate(626 2406)"/>
    <g id="speedometer" transform="translate(654.715 2443.5)">
      <g id="Group_19" data-name="Group 19">
        <g class="cls-14" transform="matrix(1, 0, 0, 1, -28.71, -37.5)">
          <path id="Path_1-2" data-name="Path 1" class="cls-2" d="M163.038,114.941a50.082,50.082,0,0,0-14.676-34.082h0a50.181,50.181,0,0,0-85.647,34.085,1.235,1.235,0,0,1-1.238,1.2h102.8A1.236,1.236,0,0,1,163.038,114.941Zm0,0" transform="translate(-16.52 -11.18)"/>
        </g>
        <path id="Path_2" data-name="Path 2" class="cls-3" d="M86.647,81.425A49.3,49.3,0,0,1,117.554,66.38q-2.319-.217-4.678-.22a50.178,50.178,0,0,0-50.162,48.783,1.235,1.235,0,0,1-1.238,1.2H72A52.964,52.964,0,0,1,86.647,81.425Zm0,0" transform="translate(-45.233 -48.678)"/>
        <g class="cls-13" transform="matrix(1, 0, 0, 1, -28.71, -37.5)">
          <path id="Path_3-2" data-name="Path 3" class="cls-4" d="M303.843,19.819A67.513,67.513,0,0,0,256,0V18.4a49.152,49.152,0,0,1,34.832,14.429Zm0,0" transform="translate(-159.64 37.5)"/>
        </g>
        <path id="Path_4" data-name="Path 4" class="cls-5" d="M74.934,19.818,87.945,32.829A49.157,49.157,0,0,1,122.778,18.4V0C105.734,0,89.162,6.1,74.934,19.818Zm0,0" transform="translate(-55.134)"/>
        <g class="cls-12" transform="matrix(1, 0, 0, 1, -28.71, -37.5)">
          <path id="Path_5-2" data-name="Path 5" class="cls-5" d="M74.934,19.818,87.945,32.829A49.157,49.157,0,0,1,122.778,18.4V0C105.734,0,89.162,6.1,74.934,19.818Zm0,0" transform="translate(-26.42 37.5)"/>
        </g>
        <g class="cls-11" transform="matrix(1, 0, 0, 1, -28.71, -37.5)">
          <path id="Path_6-2" data-name="Path 6" class="cls-6" d="M0,121.393a1.221,1.221,0,0,0,1.217,1.25H17.189A1.213,1.213,0,0,0,18.4,121.47,49.145,49.145,0,0,1,32.811,88.011L19.8,75A67.494,67.494,0,0,0,0,121.393Zm0,0" transform="translate(28.71 -17.68)"/>
        </g>
        <path id="Path_7" data-name="Path 7" class="cls-7" d="M83.315,19.342C94.841,8.227,107.891,2.065,121.486.055c-16.588.3-32.683,6.43-46.553,19.8L79.072,24Q81.08,21.582,83.315,19.342Zm0,0" transform="translate(-55.134 -0.04)"/>
        <path id="Path_8" data-name="Path 8" class="cls-8" d="M9.4,122.643a1.233,1.233,0,0,1-1.23-1.263,68.186,68.186,0,0,1,15.77-42.241L19.8,75A67.494,67.494,0,0,0,0,121.393a1.221,1.221,0,0,0,1.217,1.25H9.4Zm0,0" transform="translate(0 -55.182)"/>
        <g class="cls-10" transform="matrix(1, 0, 0, 1, -28.71, -37.5)">
          <path id="Path_9-2" data-name="Path 9" class="cls-9" d="M400.836,75,387.824,88.011a49.154,49.154,0,0,1,14.407,33.457,1.213,1.213,0,0,0,1.215,1.175h15.973a1.22,1.22,0,0,0,1.217-1.25A67.545,67.545,0,0,0,400.836,75Zm0,0" transform="translate(-256.63 -17.68)"/>
        </g>
      </g>
    </g>
  </g>
</svg>
