<svg xmlns="http://www.w3.org/2000/svg" viewBox="0 0 241 226.312">
  <defs>
    <style>
      .cls-1 {
        fill: none;
      }

      .cls-2 {
        fill: #d6d5d6;
      }

      .cls-3 {
        fill: #114b7f;
      }

      .cls-4 {
        opacity: 0.1;
      }

      .cls-5 {
        fill: #91cfe5;
      }

      .cls-6 {
        fill: #999;
      }
    </style>
  </defs>
  <g id="Group_25" data-name="Group 25" transform="translate(-10 -1499)">
    <g id="road_texture" transform="translate(586 1142)">
      <rect id="Rectangle_18" data-name="Rectangle 18" class="cls-1" width="241" height="226.312" transform="translate(-576 357)"/>
    </g>
    <g id="aeroplane" transform="translate(241.928 1730.097) rotate(-180)">
      <g id="Group_19" data-name="Group 19" transform="translate(19.527 133.083)">
        <path id="Path_42" data-name="Path 42" class="cls-2" d="M333.42,297.622v6.76a5.561,5.561,0,1,0,11.116,0v-6.76Z" transform="translate(-208.141 -290.862)"/>
        <path id="Path_43" data-name="Path 43" class="cls-2" d="M50.52,282.058a5.661,5.661,0,0,0-5.558,5.747v7.774a5.561,5.561,0,1,0,11.115,0V287.8A5.661,5.661,0,0,0,50.52,282.058Z" transform="translate(-44.962 -282.058)"/>
        <path id="Path_44" data-name="Path 44" class="cls-2" d="M104.532,282.058a5.661,5.661,0,0,0-5.558,5.747v7.774a5.561,5.561,0,1,0,11.116,0V287.8A5.661,5.661,0,0,0,104.532,282.058Z" transform="translate(-75.516 -282.058)"/>
        <path id="Path_45" data-name="Path 45" class="cls-2" d="M158.544,282.058a5.662,5.662,0,0,0-5.558,5.747v7.774a5.561,5.561,0,1,0,11.116,0V287.8A5.661,5.661,0,0,0,158.544,282.058Z" transform="translate(-106.071 -282.058)"/>
        <path id="Path_46" data-name="Path 46" class="cls-2" d="M441.445,297.622v6.76a5.561,5.561,0,1,0,11.116,0v-6.76Z" transform="translate(-269.251 -290.862)"/>
        <path id="Path_47" data-name="Path 47" class="cls-2" d="M387.432,297.622v6.76a5.561,5.561,0,1,0,11.116,0v-6.76Z" transform="translate(-238.696 -290.862)"/>
      </g>
      <path id="Path_48" data-name="Path 48" class="cls-3" d="M130.112,427.665a4.464,4.464,0,0,0,4.681,4.177H178.6a4.7,4.7,0,0,0,4.681-4.687V406.692c0-2.578-1.953-3.9-4.341-2.932l-44.49,17.974A7.141,7.141,0,0,0,130.112,427.665Z" transform="translate(-73.604 -217.642)"/>
      <path id="Path_49" data-name="Path 49" class="cls-4" d="M144.186,426.587l39.1-15.8v-4.1c0-2.578-1.953-3.9-4.341-2.932l-44.49,17.974a7.137,7.137,0,0,0-4.341,5.931,4.464,4.464,0,0,0,4.681,4.177h5.11A7.348,7.348,0,0,1,144.186,426.587Z" transform="translate(-73.604 -217.643)"/>
      <g id="Group_20" data-name="Group 20" transform="translate(95.218 18.71)">
        <path id="Path_50" data-name="Path 50" class="cls-3" d="M312.63,427.665a4.464,4.464,0,0,1-4.681,4.177H264.14a4.7,4.7,0,0,1-4.681-4.687V406.692c0-2.578,1.953-3.9,4.341-2.932l44.49,17.974A7.141,7.141,0,0,1,312.63,427.665Z" transform="translate(-241.993 -236.352)"/>
        <path id="Path_51" data-name="Path 51" class="cls-3" d="M251.73,57.565c0-.15,0-.3,0-.448,0-21.212-7.274-38.407-16.246-38.407S219.242,35.9,219.242,57.117c0,.15,0,.3,0,.448Z" transform="translate(-219.242 -18.71)"/>
      </g>
      <path id="Path_52" data-name="Path 52" class="cls-4" d="M240.332,20.446a8.112,8.112,0,0,0-4.843-1.736c-8.973,0-16.246,17.195-16.246,38.407,0,.15,0,.3,0,.448h9.687c0-.15,0-.3,0-.448C228.929,39.893,233.724,25.318,240.332,20.446Z" transform="translate(-124.024 0)"/>
      <g id="Group_21" data-name="Group 21" transform="translate(23.427 88.357)">
        <path id="Path_53" data-name="Path 53" class="cls-3" d="M146.667,202.556a2.349,2.349,0,0,1-2.341,2.344H133.755a2.349,2.349,0,0,1-2.341-2.344V181.417a2.349,2.349,0,0,1,2.341-2.343h10.571a2.349,2.349,0,0,1,2.341,2.343Z" transform="translate(-97.767 -179.074)"/>
        <path id="Path_54" data-name="Path 54" class="cls-3" d="M69.194,235.48a2.349,2.349,0,0,1-2.341,2.343H56.282a2.349,2.349,0,0,1-2.341-2.343V214.34A2.349,2.349,0,0,1,56.282,212H66.853a2.349,2.349,0,0,1,2.341,2.343v21.14h0Z" transform="translate(-53.941 -197.698)"/>
      </g>
      <path id="Path_55" data-name="Path 55" class="cls-4" d="M136.377,202.556V181.417a2.349,2.349,0,0,1,2.341-2.343h-4.9a2.349,2.349,0,0,0-2.341,2.343v21.139a2.349,2.349,0,0,0,2.341,2.344h4.9A2.349,2.349,0,0,1,136.377,202.556Z" transform="translate(-74.379 -90.717)"/>
      <path id="Path_56" data-name="Path 56" class="cls-4" d="M58.836,235.48V214.34A2.349,2.349,0,0,1,61.177,212h-4.9a2.349,2.349,0,0,0-2.341,2.343v21.14a2.349,2.349,0,0,0,2.341,2.343h4.895A2.349,2.349,0,0,1,58.836,235.48Z" transform="translate(-30.514 -109.342)"/>
      <path id="Path_57" data-name="Path 57" class="cls-5" d="M0,227.261a4.7,4.7,0,0,0,4.681,4.686h97.394a4.7,4.7,0,0,0,4.681-4.686V176.73c0-2.578-1.953-3.9-4.341-2.932L4.341,213.42A7.519,7.519,0,0,0,0,219.86Z" transform="translate(0 -87.554)"/>
      <path id="Path_58" data-name="Path 58" class="cls-4" d="M9.6,224.77a7.518,7.518,0,0,1,4.341-6.44l92.819-37.5v-4.1c0-2.578-1.954-3.9-4.341-2.932L4.341,213.421A7.519,7.519,0,0,0,0,219.861v7.4a4.7,4.7,0,0,0,4.681,4.686H9.6V224.77Z" transform="translate(0 -87.554)"/>
      <g id="Group_22" data-name="Group 22" transform="translate(150.008 88.357)">
        <path id="Path_59" data-name="Path 59" class="cls-3" d="M345.4,202.556a2.349,2.349,0,0,0,2.341,2.344H358.31a2.349,2.349,0,0,0,2.341-2.344V181.417a2.349,2.349,0,0,0-2.341-2.343H347.739a2.349,2.349,0,0,0-2.341,2.343Z" transform="translate(-345.398 -179.074)"/>
        <path id="Path_60" data-name="Path 60" class="cls-3" d="M422.938,235.48a2.349,2.349,0,0,0,2.341,2.343H435.85a2.349,2.349,0,0,0,2.341-2.343V214.34A2.349,2.349,0,0,0,435.85,212H425.279a2.349,2.349,0,0,0-2.341,2.343Z" transform="translate(-389.262 -197.698)"/>
      </g>
      <path id="SVGCleanerId_0" class="cls-5" d="M372.946,227.261a4.7,4.7,0,0,1-4.681,4.686H270.87a4.7,4.7,0,0,1-4.681-4.686V176.73c0-2.578,1.954-3.9,4.341-2.932L368.6,213.42a7.518,7.518,0,0,1,4.341,6.44v7.4Z" transform="translate(-150.582 -87.554)"/>
      <g id="Group_23" data-name="Group 23" transform="translate(115.607 85.928)">
        <path id="SVGCleanerId_0_1_" class="cls-5" d="M372.946,227.261a4.7,4.7,0,0,1-4.681,4.686H270.87a4.7,4.7,0,0,1-4.681-4.686V176.73c0-2.578,1.954-3.9,4.341-2.932L368.6,213.42a7.518,7.518,0,0,1,4.341,6.44v7.4Z" transform="translate(-266.189 -173.482)"/>
      </g>
      <path id="Path_61" data-name="Path 61" class="cls-2" d="M244.549,220.96c0,12.887-2.992,23.431-13.548,23.431s-13.548-10.544-13.548-23.431L211.808,93.026c0-12.887,8.637-23.431,19.194-23.431S250.2,80.139,250.2,93.026Z" transform="translate(-119.819 -28.785)"/>
      <path id="Path_62" data-name="Path 62" class="cls-4" d="M224.392,220.96,218.747,93.026c0-11.443,6.812-21.032,15.728-23.039A15.72,15.72,0,0,0,231,69.6c-10.556,0-19.194,10.544-19.194,23.431l5.645,127.934c0,12.887,2.992,23.431,13.548,23.431a13,13,0,0,0,3.462-.445C226.712,241.823,224.392,232.3,224.392,220.96Z" transform="translate(-119.818 -28.785)"/>
      <path id="Path_63" data-name="Path 63" class="cls-6" d="M254.558,435.905a4.7,4.7,0,0,1-4.681,4.686H249.7a4.7,4.7,0,0,1-4.681-4.686V404.82a4.7,4.7,0,0,1,4.681-4.687h.172a4.7,4.7,0,0,1,4.681,4.687Z" transform="translate(-138.608 -215.769)"/>
      <g id="Group_24" data-name="Group 24" transform="translate(22.69 49.475)">
        <path id="Path_64" data-name="Path 64" class="cls-3" d="M249.176,105.727a3.4,3.4,0,0,1-3.4-3.4c0-5.969-2.817-5.969-4.5-5.969s-4.5,0-4.5,5.969a3.4,3.4,0,1,1-6.807,0c0-8,4.227-12.776,11.307-12.776s11.307,4.776,11.307,12.776A3.4,3.4,0,0,1,249.176,105.727Z" transform="translate(-152.781 -89.547)"/>
        <path id="Path_65" data-name="Path 65" class="cls-3" d="M109.4,286.308H56.926a4.7,4.7,0,0,0-4.681,4.687v4.778h61.836v-4.778A4.7,4.7,0,0,0,109.4,286.308Z" transform="translate(-52.245 -200.854)"/>
        <path id="Path_66" data-name="Path 66" class="cls-3" d="M374.531,286.308H322.058a4.7,4.7,0,0,0-4.681,4.687v4.778h61.836v-4.778A4.7,4.7,0,0,0,374.531,286.308Z" transform="translate(-202.229 -200.854)"/>
      </g>
    </g>
  </g>
</svg>
